<?xml version="1.0" encoding="UTF-8" standalone="no"?>
<svg
   xmlns:dc="http://purl.org/dc/elements/1.1/"
   xmlns:cc="http://creativecommons.org/ns#"
   xmlns:rdf="http://www.w3.org/1999/02/22-rdf-syntax-ns#"
   xmlns:svg="http://www.w3.org/2000/svg"
   xmlns="http://www.w3.org/2000/svg"
   xmlns:sodipodi="http://sodipodi.sourceforge.net/DTD/sodipodi-0.dtd"
   xmlns:inkscape="http://www.inkscape.org/namespaces/inkscape"
   width="1600"
   height="1200"
   viewBox="0 0 2300 1200"
   version="1.1"
   id="svg3408"
   inkscape:version="0.91 r13725"
   sodipodi:docname="speedindex2.svg">
  <metadata
     id="metadata3894">
    <rdf:RDF>
      <cc:Work
         rdf:about="">
        <dc:format>image/svg+xml</dc:format>
        <dc:type
           rdf:resource="http://purl.org/dc/dcmitype/StillImage" />
        <dc:title>Speed Index</dc:title>
      </cc:Work>
    </rdf:RDF>
  </metadata>
  <defs
     id="defs3892" />
  <sodipodi:namedview
     pagecolor="#ffffff"
     bordercolor="#666666"
     borderopacity="1"
     objecttolerance="10"
     gridtolerance="10"
     guidetolerance="10"
     inkscape:pageopacity="0"
     inkscape:pageshadow="2"
     inkscape:window-width="1146"
     inkscape:window-height="861"
     id="namedview3890"
     showgrid="false"
     inkscape:zoom="1.0960155"
     inkscape:cx="699.57245"
     inkscape:cy="807.03676"
     inkscape:window-x="227"
     inkscape:window-y="0"
     inkscape:window-maximized="0"
     inkscape:current-layer="svg3408" />
  <title
     id="title3410">Speed Index</title>
  <style
     id="style3412">
.findings rect,
.base rect {
  stroke: rgb(230, 170, 184);
  stroke-width: 1px;
  width: 19px;
  fill: rgb(240,180, 194);
}

.base rect {
  stroke: #ddd;
  fill: #fff;
}
.grid rect{
  stroke: #ccc;
  stroke-width:2px;
  stroke-linecap:butt;
  stroke-linejoin:miter;
  stroke-opacity:1;
  fill: transparent;
}
.values text,
.axes text  {
  font-size: 40px;
  font-family:sans-serif;
}
.values text {
  font-size: 20px;
}


.rotate {
  transform: rotate(-90deg); 
}
</style>
  <g
     class="base"
     id="g3414">
    <rect
       width="15"
       height="900"
       y="115"
       x="100"
       id="rect3416" />
    <rect
       width="15"
       height="900"
       y="115"
       x="120"
       id="rect3418" />
    <rect
       width="15"
       height="900"
       y="115"
       x="140"
       id="rect3420" />
    <rect
       width="15"
       height="900"
       y="115"
       x="160"
       id="rect3422" />
    <rect
       width="15"
       height="900"
       y="115"
       x="180"
       id="rect3424" />
    <rect
       width="15"
       height="900"
       y="115"
       x="200"
       id="rect3426" />
    <rect
       width="15"
       height="900"
       y="115"
       x="220"
       id="rect3428" />
    <rect
       width="15"
       height="900"
       y="115"
       x="240"
       id="rect3430" />
    <rect
       width="15"
       height="900"
       y="115"
       x="260"
       id="rect3432" />
    <rect
       width="15"
       height="900"
       y="115"
       x="280"
       id="rect3434" />
    <rect
       width="15"
       height="900"
       y="115"
       x="300"
       id="rect3436" />
    <rect
       width="15"
       height="900"
       y="115"
       x="320"
       id="rect3438" />
    <rect
       width="15"
       height="900"
       y="115"
       x="340"
       id="rect3440" />
    <rect
       width="15"
       height="900"
       y="115"
       x="360"
       id="rect3442" />
    <rect
       width="15"
       height="900"
       y="115"
       x="380"
       id="rect3444" />
    <rect
       width="15"
       height="900"
       y="115"
       x="400"
       id="rect3446" />
    <rect
       width="15"
       height="900"
       y="115"
       x="420"
       id="rect3448" />
    <rect
       width="15"
       height="900"
       y="115"
       x="440"
       id="rect3450" />
    <rect
       width="15"
       height="900"
       y="115"
       x="460"
       id="rect3452" />
    <rect
       width="15"
       height="900"
       y="115"
       x="480"
       id="rect3454" />
    <rect
       width="15"
       height="900"
       y="115"
       x="500"
       id="rect3456" />
    <rect
       width="15"
       height="900"
       y="115"
       x="520"
       id="rect3458" />
    <rect
       width="15"
       height="900"
       y="115"
       x="540"
       id="rect3460" />
    <rect
       width="15"
       height="900"
       y="115"
       x="560"
       id="rect3462" />
    <rect
       width="15"
       height="900"
       y="115"
       x="580"
       id="rect3464" />
    <rect
       width="15"
       height="900"
       y="115"
       x="600"
       id="rect3466" />
    <rect
       width="15"
       height="900"
       y="115"
       x="620"
       id="rect3468" />
    <rect
       width="15"
       height="900"
       y="115"
       x="640"
       id="rect3470" />
    <rect
       width="15"
       height="900"
       y="115"
       x="660"
       id="rect3472" />
    <rect
       width="15"
       height="900"
       y="115"
       x="680"
       id="rect3474" />
    <rect
       width="15"
       height="900"
       y="115"
       x="700"
       id="rect3476" />
    <rect
       width="15"
       height="900"
       y="115"
       x="720"
       id="rect3478" />
    <rect
       width="15"
       height="900"
       y="115"
       x="740"
       id="rect3480" />
    <rect
       width="15"
       height="900"
       y="115"
       x="760"
       id="rect3482" />
    <rect
       width="15"
       height="900"
       y="115"
       x="780"
       id="rect3484" />
    <rect
       width="15"
       height="900"
       y="115"
       x="800"
       id="rect3486" />
    <rect
       width="15"
       height="900"
       y="115"
       x="820"
       id="rect3488" />
    <rect
       width="15"
       height="900"
       y="115"
       x="840"
       id="rect3490" />
    <rect
       width="15"
       height="900"
       y="115"
       x="860"
       id="rect3492" />
    <rect
       width="15"
       height="900"
       y="115"
       x="880"
       id="rect3494" />
    <rect
       width="15"
       height="900"
       y="115"
       x="900"
       id="rect3496" />
    <rect
       width="15"
       height="900"
       y="115"
       x="920"
       id="rect3498" />
    <rect
       width="15"
       height="900"
       y="115"
       x="940"
       id="rect3500" />
    <rect
       width="15"
       height="900"
       y="115"
       x="960"
       id="rect3502" />
    <rect
       width="15"
       height="900"
       y="115"
       x="980"
       id="rect3504" />
    <rect
       width="15"
       height="900"
       y="115"
       x="1000"
       id="rect3506" />
    <rect
       width="15"
       height="900"
       y="115"
       x="1020"
       id="rect3508" />
    <rect
       width="15"
       height="900"
       y="115"
       x="1040"
       id="rect3510" />
    <rect
       width="15"
       height="900"
       y="115"
       x="1060"
       id="rect3512" />
    <rect
       width="15"
       height="900"
       y="115"
       x="1080"
       id="rect3514" />
    <rect
       width="15"
       height="900"
       y="115"
       x="1100"
       id="rect3516" />
    <rect
       width="15"
       height="900"
       y="115"
       x="1120"
       id="rect3518" />
    <rect
       width="15"
       height="900"
       y="115"
       x="1140"
       id="rect3520" />
    <rect
       width="15"
       height="900"
       y="115"
       x="1160"
       id="rect3522" />
    <rect
       width="15"
       height="900"
       y="115"
       x="1180"
       id="rect3524" />
    <rect
       width="15"
       height="900"
       y="115"
       x="1200"
       id="rect3526" />
    <rect
       width="15"
       height="900"
       y="115"
       x="1220"
       id="rect3528" />
    <rect
       width="15"
       height="900"
       y="115"
       x="1240"
       id="rect3530" />
    <rect
       width="15"
       height="900"
       y="115"
       x="1260"
       id="rect3532" />
    <rect
       width="15"
       height="900"
       y="115"
       x="1280"
       id="rect3534" />
    <rect
       width="15"
       height="900"
       y="115"
       x="1300"
       id="rect3536" />
    <rect
       width="15"
       height="900"
       y="115"
       x="1320"
       id="rect3538" />
    <rect
       width="15"
       height="900"
       y="115"
       x="1340"
       id="rect3540" />
    <rect
       width="15"
       height="900"
       y="115"
       x="1360"
       id="rect3542" />
    <rect
       width="15"
       height="900"
       y="115"
       x="1380"
       id="rect3544" />
    <rect
       width="15"
       height="900"
       y="115"
       x="1400"
       id="rect3546" />
    <rect
       width="15"
       height="900"
       y="115"
       x="1420"
       id="rect3548" />
    <rect
       width="15"
       height="900"
       y="115"
       x="1440"
       id="rect3550" />
    <rect
       width="15"
       height="900"
       y="115"
       x="1460"
       id="rect3552" />
    <rect
       width="15"
       height="900"
       y="115"
       x="1480"
       id="rect3554" />
    <rect
       width="15"
       height="900"
       y="115"
       x="1500"
       id="rect3556" />
    <rect
       width="15"
       height="900"
       y="115"
       x="1520"
       id="rect3558" />
    <rect
       width="15"
       height="900"
       y="115"
       x="1540"
       id="rect3560" />
    <rect
       width="15"
       height="900"
       y="115"
       x="1560"
       id="rect3562" />
    <rect
       width="15"
       height="900"
       y="115"
       x="1580"
       id="rect3564" />
    <rect
       width="15"
       height="900"
       y="115"
       x="1600"
       id="rect3566" />
    <rect
       width="15"
       height="900"
       y="115"
       x="1620"
       id="rect3568" />
    <rect
       width="15"
       height="900"
       y="115"
       x="1640"
       id="rect3570" />
    <rect
       width="15"
       height="900"
       y="115"
       x="1660"
       id="rect3572" />
    <rect
       width="15"
       height="900"
       y="115"
       x="1680"
       id="rect3574" />
    <rect
       width="15"
       height="900"
       y="115"
       x="1700"
       id="rect3576" />
    <rect
       width="15"
       height="900"
       y="115"
       x="1720"
       id="rect3578" />
    <rect
       width="15"
       height="900"
       y="115"
       x="1740"
       id="rect3580" />
    <rect
       width="15"
       height="900"
       y="115"
       x="1760"
       id="rect3582" />
    <rect
       width="15"
       height="900"
       y="115"
       x="1780"
       id="rect3584" />
    <rect
       width="15"
       height="900"
       y="115"
       x="1800"
       id="rect3586" />
    <rect
       width="15"
       height="900"
       y="115"
       x="1820"
       id="rect3588" />
    <rect
       width="15"
       height="900"
       y="115"
       x="1840"
       id="rect3590" />
    <rect
       width="15"
       height="900"
       y="115"
       x="1860"
       id="rect3592" />
    <rect
       width="15"
       height="900"
       y="115"
       x="1880"
       id="rect3594" />
    <rect
       width="15"
       height="900"
       y="115"
       x="1900"
       id="rect3596" />
    <rect
       width="15"
       height="900"
       y="115"
       x="1920"
       id="rect3598" />
    <rect
       width="15"
       height="900"
       y="115"
       x="1940"
       id="rect3600" />
    <rect
       width="15"
       height="900"
       y="115"
       x="1960"
       id="rect3602" />
    <rect
       width="15"
       height="900"
       y="115"
       x="1980"
       id="rect3604" />
    <rect
       width="15"
       height="900"
       y="115"
       x="2000"
       id="rect3606" />
  </g>
  <g
     class="grid"
     transform="translate(62,-175  )"
     id="g3608">
    <rect
       width="1900"
       height="810"
       y="290"
       x="50"
       id="rect3610" />
    <rect
       width="1900"
       height="630"
       y="380"
       x="50"
       id="rect3612" />
    <rect
       width="1900"
       height="450"
       y="470"
       x="50"
       id="rect3614" />
    <rect
       width="1900"
       height="270"
       y="560"
       x="50"
       id="rect3616" />
    <rect
       width="1900"
       height="90"
       y="650"
       x="50"
       id="rect3618" />
  </g>
  <g
     class="findings"
     transform="translate(0,-185)"
     id="g3620">
    <rect
       width="15"
       height="900"
       y="300"
       x="100"
       id="rect3622" />
    <rect
       width="15"
       height="900"
       y="300"
       x="120"
       id="rect3624" />
    <rect
       width="15"
       height="900"
       y="300"
       x="140"
       id="rect3626" />
    <rect
       width="15"
       height="900"
       y="300"
       x="160"
       id="rect3628" />
    <rect
       width="15"
       height="900"
       y="300"
       x="180"
       id="rect3630" />
    <rect
       width="15"
       height="900"
       y="300"
       x="200"
       id="rect3632" />
    <rect
       width="15"
       height="900"
       y="300"
       x="220"
       id="rect3634" />
    <rect
       width="15"
       height="900"
       y="300"
       x="240"
       id="rect3636" />
    <rect
       width="15"
       height="900"
       y="300"
       x="260"
       id="rect3638" />
    <rect
       width="15"
       height="900"
       y="300"
       x="280"
       id="rect3640" />
    <rect
       width="15"
       height="450"
       y="300"
       x="300"
       id="rect3642" />
    <rect
       width="15"
       height="450"
       y="300"
       x="320"
       id="rect3644" />
    <rect
       width="15"
       height="450"
       y="300"
       x="340"
       id="rect3646" />
    <rect
       width="15"
       height="450"
       y="300"
       x="360"
       id="rect3648" />
    <rect
       width="15"
       height="450"
       y="300"
       x="380"
       id="rect3650" />
    <rect
       width="15"
       height="450"
       y="300"
       x="400"
       id="rect3652" />
    <rect
       width="15"
       height="450"
       y="300"
       x="420"
       id="rect3654" />
    <rect
       width="15"
       height="450"
       y="300"
       x="440"
       id="rect3656" />
    <rect
       width="15"
       height="450"
       y="300"
       x="460"
       id="rect3658" />
    <rect
       width="15"
       height="450"
       y="300"
       x="480"
       id="rect3660" />
    <rect
       width="15"
       height="450"
       y="300"
       x="500"
       id="rect3662" />
    <rect
       width="15"
       height="450"
       y="300"
       x="520"
       id="rect3664" />
    <rect
       width="15"
       height="450"
       y="300"
       x="540"
       id="rect3666" />
    <rect
       width="15"
       height="450"
       y="300"
       x="560"
       id="rect3668" />
    <rect
       width="15"
       height="450"
       y="300"
       x="580"
       id="rect3670" />
    <rect
       width="15"
       height="360"
       y="300"
       x="600"
       id="rect3672" />
    <rect
       width="15"
       height="360"
       y="300"
       x="620"
       id="rect3674" />
    <rect
       width="15"
       height="360"
       y="300"
       x="640"
       id="rect3676" />
    <rect
       width="15"
       height="360"
       y="300"
       x="660"
       id="rect3678" />
    <rect
       width="15"
       height="360"
       y="300"
       x="680"
       id="rect3680" />
    <rect
       width="15"
       height="360"
       y="300"
       x="700"
       id="rect3682" />
    <rect
       width="15"
       height="360"
       y="300"
       x="720"
       id="rect3684" />
    <rect
       width="15"
       height="300"
       y="300"
       x="740"
       id="rect3686" />
    <rect
       width="15"
       height="300"
       y="300"
       x="760"
       id="rect3688" />
    <rect
       width="15"
       height="300"
       y="300"
       x="780"
       id="rect3690" />
    <rect
       width="15"
       height="300"
       y="300"
       x="800"
       id="rect3692" />
    <rect
       width="15"
       height="300"
       y="300"
       x="820"
       id="rect3694" />
    <rect
       width="15"
       height="300"
       y="300"
       x="840"
       id="rect3696" />
    <rect
       width="15"
       height="240"
       y="300"
       x="860"
       id="rect3698" />
    <rect
       width="15"
       height="240"
       y="300"
       x="880"
       id="rect3700" />
    <rect
       width="15"
       height="240"
       y="300"
       x="900"
       id="rect3702" />
    <rect
       width="15"
       height="240"
       y="300"
       x="920"
       id="rect3704" />
    <rect
       width="15"
       height="240"
       y="300"
       x="940"
       id="rect3706" />
    <rect
       width="15"
       height="190"
       y="300"
       x="960"
       id="rect3708" />
    <rect
       width="15"
       height="190"
       y="300"
       x="980"
       id="rect3710" />
    <rect
       width="15"
       height="190"
       y="300"
       x="1000"
       id="rect3712" />
    <rect
       width="15"
       height="190"
       y="300"
       x="1020"
       id="rect3714" />
    <rect
       width="15"
       height="190"
       y="300"
       x="1040"
       id="rect3716" />
    <rect
       width="15"
       height="80"
       y="300"
       x="1060"
       id="rect3718" />
    <rect
       width="15"
       height="80"
       y="300"
       x="1080"
       id="rect3720" />
    <rect
       width="15"
       height="80"
       y="300"
       x="1100"
       id="rect3722" />
    <rect
       width="15"
       height="60"
       y="300"
       x="1120"
       id="rect3724" />
    <rect
       width="15"
       height="60"
       y="300"
       x="1140"
       id="rect3726" />
    <rect
       width="15"
       height="60"
       y="300"
       x="1160"
       id="rect3728" />
    <rect
       width="15"
       height="60"
       y="300"
       x="1180"
       id="rect3730" />
    <rect
       width="15"
       height="60"
       y="300"
       x="1200"
       id="rect3732" />
    <rect
       width="15"
       height="60"
       y="300"
       x="1220"
       id="rect3734" />
    <rect
       width="15"
       height="60"
       y="300"
       x="1240"
       id="rect3736" />
    <rect
       width="15"
       height="60"
       y="300"
       x="1260"
       id="rect3738" />
    <rect
       width="15"
       height="90"
       y="300"
       x="1280"
       id="rect3740" />
    <rect
       width="15"
       height="90"
       y="300"
       x="1300"
       id="rect3742" />
    <rect
       width="15"
       height="90"
       y="300"
       x="1320"
       id="rect3744" />
    <rect
       width="15"
       height="90"
       y="300"
       x="1340"
       id="rect3746" />
    <rect
       width="15"
       height="60"
       y="300"
       x="1360"
       id="rect3748" />
    <rect
       width="15"
       height="60"
       y="300"
       x="1380"
       id="rect3750" />
    <rect
       width="15"
       height="60"
       y="300"
       x="1400"
       id="rect3752" />
    <rect
       width="15"
       height="5"
       y="300"
       x="1420"
       id="rect3754" />
    <rect
       width="15"
       height="5"
       y="300"
       x="1440"
       id="rect3756" />
    <rect
       width="15"
       height="5"
       y="300"
       x="1460"
       id="rect3758" />
    <rect
       width="15"
       height="5"
       y="300"
       x="1480"
       id="rect3760" />
    <rect
       width="15"
       height="5"
       y="300"
       x="1500"
       id="rect3762" />
    <rect
       width="15"
       height="20"
       y="300"
       x="1520"
       id="rect3764" />
    <rect
       width="15"
       height="20"
       y="300"
       x="1540"
       id="rect3766" />
    <rect
       width="15"
       height="20"
       y="300"
       x="1560"
       id="rect3768" />
    <rect
       width="15"
       height="20"
       y="300"
       x="1580"
       id="rect3770" />
    <rect
       width="15"
       height="20"
       y="300"
       x="1600"
       id="rect3772" />
    <rect
       width="15"
       height="5"
       y="300"
       x="1620"
       id="rect3774" />
    <rect
       width="15"
       height="5"
       y="300"
       x="1640"
       id="rect3776" />
    <rect
       width="15"
       height="5"
       y="300"
       x="1660"
       id="rect3778" />
    <rect
       width="15"
       height="5"
       y="300"
       x="1680"
       id="rect3780" />
    <rect
       width="15"
       height="5"
       y="300"
       x="1700"
       id="rect3782" />
    <rect
       width="15"
       height="5"
       y="300"
       x="1720"
       id="rect3784" />
    <rect
       width="15"
       height="2"
       y="300"
       x="1740"
       id="rect3786" />
    <rect
       width="15"
       height="2"
       y="300"
       x="1760"
       id="rect3788" />
    <rect
       width="15"
       height="2"
       y="300"
       x="1780"
       id="rect3790" />
    <rect
       width="15"
       height="2"
       y="300"
       x="1800"
       id="rect3792" />
    <rect
       width="15"
       height="2"
       y="300"
       x="1820"
       id="rect3794" />
    <rect
       width="15"
       height="2"
       y="300"
       x="1840"
       id="rect3796" />
    <rect
       width="15"
       height="2"
       y="300"
       x="1860"
       id="rect3798" />
    <rect
       width="15"
       height="2"
       y="300"
       x="1880"
       id="rect3800" />
    <rect
       width="15"
       height="2"
       y="300"
       x="1900"
       id="rect3802" />
    <rect
       width="15"
       height="2"
       y="300"
       x="1920"
       id="rect3804" />
    <rect
       width="15"
       height="2"
       y="300"
       x="1940"
       id="rect3806" />
    <rect
       width="15"
       height="2"
       y="300"
       x="1960"
       id="rect3808" />
    <rect
       width="15"
       height="2"
       y="300"
       x="1980"
       id="rect3810" />
    <rect
       width="15"
       height="2"
       y="300"
       x="2000"
       id="rect3812" />
  </g>
  <g
     class="lines"
     transform="translate(100,0)"
     id="g3814">
    <rect
       width="3"
       height="900"
       y="115"
       x="0"
       id="rect3816" />
    <rect
       width="3"
       height="900"
       y="115"
       x="200"
       id="rect3818" />
    <rect
       width="3"
       height="900"
       y="115"
       x="400"
       id="rect3820" />
    <rect
       width="3"
       height="900"
       y="115"
       x="600"
       id="rect3822" />
    <rect
       width="3"
       height="900"
       y="115"
       x="800"
       id="rect3824" />
    <rect
       width="3"
       height="900"
       y="115"
       x="1000"
       id="rect3826" />
    <rect
       width="3"
       height="900"
       y="115"
       x="1200"
       id="rect3828" />
    <rect
       width="3"
       height="900"
       y="115"
       x="1400"
       id="rect3830" />
    <rect
       width="3"
       height="900"
       y="115"
       x="1600"
       id="rect3832" />
    <rect
       width="3"
       height="900"
       y="115"
       x="1800"
       id="rect3834" />
    <rect
       width="3"
       height="900"
       y="115"
       x="1910"
       id="rect3836" />
    <rect
       width="1910"
       height="3"
       y="1012"
       x="0"
       id="rect3838" />
    <rect
       width="1910"
       height="3"
       y="112"
       x="0"
       id="rect3840" />
  </g>
  <g
     class="values"
     transform="translate(0,-20)"
     id="g3842">
    <text
       x="100"
       y="1060"
       id="text3844">0 s</text>
    <text
       x="300"
       y="1060"
       id="text3846">1 s</text>
    <text
       x="500"
       y="1060"
       id="text3848">2 s</text>
    <text
       x="700"
       y="1060"
       id="text3850">3 s</text>
    <text
       x="900"
       y="1060"
       id="text3852">4 s</text>
    <text
       x="1100"
       y="1060"
       id="text3854">5 s</text>
    <text
       x="1300"
       y="1060"
       id="text3856">6 s</text>
    <text
       x="1500"
       y="1060"
       id="text3858">7 s</text>
    <text
       x="1700"
       y="1060"
       id="text3860">8 s</text>
    <text
       x="1900"
       y="1060"
       id="text3862">9 s</text>
    <text
       x="2100"
       y="1060"
       id="text3864">10 s</text>
  </g>
  <g
     class="values"
     transform="translate(10,120)"
     id="g3866">
    <text
       x="50"
       y="0"
       id="text3868">100%</text>
    <text
       x="50"
       y="90"
       id="text3870">90%</text>
    <text
       x="50"
       y="180"
       id="text3872">80%</text>
    <text
       x="50"
       y="270"
       id="text3874">70%</text>
    <text
       x="50"
       y="630"
       id="text3876">30%</text>
    <text
       x="50"
       y="720"
       id="text3878">20%</text>
    <text
       x="50"
       y="810"
       id="text3880">10%</text>
    <text
       x="50"
       y="890"
       id="text3882">0%</text>
  </g>
  <g
     class="axes"
     id="g3884">
    <text
       x="600"
       y="1100"
       id="text3886">Time</text>
    <text
       x="-700"
       y="60"
       class="rotate"
       id="text3888">Percent Loaded</text>
  </g>
  <text
       x="200"
       y="108">1000</text>
  <text
       x="400"
       y="108">1500</text>
  <text 
       x="600"
       y="108">1950</text>
  <text
       x="800"
       y="108">2286</text>
  <text
       x="1000"
       y="108">2490</text>
  <text
       x="1200"
       y="108">2560</text>
  <text
       x="1400"
       y="108">2608</text>
</svg>
