<svg xmlns="http://www.w3.org/2000/svg" width="200" height="200" xmlns:xlink="http://www.w3.org/1999/xlink">
  <title>
    Square Half: Flower
  </title>
  <defs>
    <pattern id="b" xlink:href="#a" patternTransform="translate(-280.875 -193.738)"/>
    <pattern id="a" width="30" height="40" patternUnits="userSpaceOnUse" patternTransform="translate(0 3)">
      <path d="M0 0h30v40H0z"/>
      <path fill="#fff" d="M0 0h30v15H0z"/>
    </pattern>
  </defs>
  <path stroke="#000" d="M0 0h200v200H0z"/>
  <path fill="#fff" d="M1 1h198v99H1z"/>
  <ellipse cx="128.2" cy="46.5" rx="20" ry="10" transform="rotate(19.725)"/>
  <ellipse cx="123.9" cy="-61.3" rx="20" ry="10" transform="rotate(54.367)"/>
  <ellipse cx="19.2" cy="169.8" rx="20" ry="10" transform="rotate(-61.193)"/>
  <ellipse cx="133.7" cy="143.8" rx="20" ry="10" transform="rotate(-20.783)"/>
  <ellipse cx="67" cy="138.9" fill="#fff"  rx="20" ry="10" transform="rotate(-17.145)"/>
  <ellipse cx="-61" cy="172.8" fill="#fff" rx="20" ry="10" transform="rotate(-62.464)"/>
  <ellipse cx="196.7" cy="-55.5" fill="#fff" rx="20" ry="10" transform="rotate(55.997)"/>
  <ellipse cx="198.5" cy="66.4" fill="#fff" rx="20" ry="10" transform="rotate(14.16)"/>
  <circle cx="-140.9" cy="-96.7" r="15" fill="url(#b)" transform="rotate(-179.485)"/>
</svg>