<svg xmlns="http://www.w3.org/2000/svg" width="900" height="600">
	<title>Comparison of Timings for Wolferman's and Staples Page load</title>
	<style>
		* {
			font-family: arial;
			font-size: small;
			color: #222;
		}
	</style>
  <path fill="#fff" d="M0 0h900v600H0z"/>
  <text x="172" y="89.9" font-weight="bold">
    Timings (ms)
  </text>
  <text x="775" y="126.9">
    Staples
  </text>
  <path fill="#36c" d="M742 115h28v14h-28z"/>
  <text x="775" y="149.9">
    Wolfermans
  </text>
  <path fill="#dc3912" d="M742 138h28v14h-28z"/>
  <g clip-path="url(https://www.webpagetest.org/video/compare.php?tests=170228_WQ_2NZ%2C170228_RN_2P0&amp;thumbSize=200&amp;ival=1000&amp;end=visual#_ABSTRACT_RENDERER_ID_1)">
    <path fill="#ccc" d="M172 485h556v1H172zm0-92h556v1H172zm0-93h556v1H172zm0-92h556v1H172zm0-93h556v1H172z"/>
    <path fill="#36c" d="M183 260h17v225h-17zm56-1h16v226h-16zm55 187h17v39h-17zm56-154h16v193h-16zm55 160h17v33h-17zm56-54h16v87h-16zm55 86.4h17v1h-17zm56-7.4h16v8h-16zm55-13h17v21h-17zm56-322h16v343h-16z"/>
    <path fill="#dc3912" d="M201 370h16v115h-16zm55 0h17v115h-17zm56 60h16v55h-16zm55-68h17v123h-17zm56 93h16v30h-16zm55-33h17v63h-17zm56 55h16v8h-16zm55-9h17v17h-17zm56-7h16v24h-16zm55-157h17v181h-17z"/>
    <path fill="#333" d="M172 485h556v1H172z"/>
  </g>
  <text x="202.7" y="506.2" text-anchor="end" transform="rotate(-30 202.7 506.244)">
    Visually Complete
  </text>
  <text x="258.2" y="506.2" text-anchor="end" transform="rotate(-30 258.2 506.244)">
    Last Visual Change
  </text>
  <text x="313.7" y="506.2" text-anchor="end" transform="rotate(-30 313.7 506.244)">
    Load Time (onload)
  </text>
  <text x="369.2" y="506.2" text-anchor="end" transform="rotate(-30 369.2 506.244)">
    Load Time (Fully Loaded)
  </text>
  <text x="424.7" y="506.2" text-anchor="end" transform="rotate(-30 424.7 506.244)">
    DOM Content Loaded
  </text>
  <text x="480.2" y="506.2" text-anchor="end" transform="rotate(-30 480.2 506.244)">
    Speed Index
  </text>
  <text x="535.7" y="506.2" text-anchor="end" transform="rotate(-30 535.7 506.244)">
    Time to First Byte
  </text>
  <text x="591.2" y="506.2" text-anchor="end" transform="rotate(-30 591.2 506.244)">
    Time to Title
  </text>
  <text x="646.7" y="506.2" text-anchor="end" transform="rotate(-30 646.7 506.244)">
    Time to Start Render
  </text>
  <text x="702.2" y="506.2" text-anchor="end" transform="rotate(-30 702.2 506.244)">
    CPU Busy Time
  </text>
  <text x="158" y="490.4" fill="#444" text-anchor="end">
    0
  </text>
  <text x="158" y="397.9" fill="#444" text-anchor="end">
    7,500
  </text>
  <text x="158" y="305.4" fill="#444" text-anchor="end">
    15,000
  </text>
  <text x="158" y="212.9" fill="#444" text-anchor="end">
    22,500
  </text>
  <text x="158" y="120.4" fill="#444" text-anchor="end">
    30,000
  </text>
</svg>